<svg width="8" height="15" viewBox="0 0 8 15" fill="none" xmlns="http://www.w3.org/2000/svg">
<path d="M0.880167 0.50003L0.697371 0.502822L0.622382 0.687605C0.235294 1.81492 0 3.05893 0 4.23238C0 5.8466 0.434263 7.02905 1.1662 7.80063C1.72029 8.3847 2.43437 8.72203 3.21808 8.85122C3.71791 10.2955 3.68852 11.8831 3.14314 13.3143C2.24949 13.468 1.38088 13.8628 0.618726 14.5H7.38127C6.61892 13.8627 5.75074 13.4679 4.85686 13.3143C4.3109 11.8815 4.28303 10.2921 4.78467 8.84651C5.56207 8.71498 6.2716 8.37969 6.82467 7.80066C7.56123 7.02947 8 5.84717 8 4.23241C8 3.05896 7.76471 1.81495 7.37762 0.687605L7.31362 0.5H0.880108L0.880167 0.50003ZM1.07759 1.06092H6.92244C7.13449 1.71574 7.29213 2.4088 7.3785 3.09366H0.621504C0.707871 2.4088 0.865543 1.71574 1.07756 1.06092H1.07759ZM0.566636 3.65456H7.4333C7.44647 3.84937 7.45349 4.04214 7.45349 4.23238C7.45349 5.74394 7.05233 6.7616 6.43437 7.40855C5.81637 8.05554 4.96338 8.35126 3.99134 8.35126C3.01922 8.35126 2.17079 8.05521 1.55739 7.40858C0.943984 6.76196 0.546514 5.74454 0.546514 4.23241C0.546514 4.04217 0.553533 3.8494 0.566636 3.65459V3.65456Z" fill="black"/>
</svg>
