<svg width="256" height="256" viewBox="0 0 256 256" fill="none" xmlns="http://www.w3.org/2000/svg">
<rect width="256" height="256" fill="#EAE1DF"/>
<path d="M81.4171 127.692C81.4171 138.037 83.0999 147.423 86.4654 155.85C89.8996 164.208 94.7762 171.368 101.095 177.328C107.414 183.289 115.107 187.879 124.173 191.099C133.308 194.319 143.542 195.929 154.875 195.929H177.437V107.036H200V206H145.602C137.429 206 129.565 205.281 122.009 203.842C114.454 202.403 107.38 200.245 100.786 197.368C94.1924 194.49 88.2169 190.893 82.8595 186.577C77.5022 182.261 72.9003 177.191 69.054 171.368C65.2077 165.544 62.22 159.001 60.0908 151.739C58.0303 144.477 57 136.461 57 127.692C57 120.361 57.9616 113.339 59.8847 106.625C61.8766 99.9104 64.6239 93.6759 68.1268 87.9209C71.6984 82.166 75.9568 76.9592 80.902 72.3004C85.9159 67.6416 91.445 63.668 97.4892 60.3794C103.602 57.0224 110.161 54.4532 117.167 52.6719C124.173 50.8906 131.488 50 139.112 50C150.994 50 162.052 51.9526 172.286 55.8577C182.52 59.7628 191.586 65.1067 199.485 71.8893L193.715 79.4941C190.556 76.8221 187.053 74.3215 183.207 71.9921C179.429 69.6627 175.377 67.6416 171.05 65.9289C166.791 64.2161 162.361 62.8801 157.759 61.9209C153.158 60.9618 148.521 60.4822 143.851 60.4822C134.166 60.5507 125.478 62.2978 117.785 65.7233C110.093 69.0804 103.533 73.7734 98.1073 79.8024C92.75 85.7628 88.629 92.8195 85.7442 100.972C82.8595 109.125 81.4171 118.032 81.4171 127.692Z" fill="black"/>
</svg>
