<svg width="108" height="32" viewBox="0 0 108 32" fill="none" xmlns="http://www.w3.org/2000/svg">
<path d="M97.8336 9.74234L103.94 0.512207H106.003L98.8734 11.2945L108 25.0654H103.544L96.4803 14.2831L89.3838 25.0654H87.3208L95.4571 12.6815L87.5188 0.512207H91.7768L97.8336 9.74234Z" fill="white"/>
<path d="M80.2739 9.19727C81.3962 9.19727 82.3424 9.40642 83.1125 9.82472C83.8937 10.232 84.5264 10.7879 85.0105 11.4924C85.5056 12.1969 85.8577 13.0115 86.0667 13.9362C86.2867 14.8498 86.3968 15.8185 86.3968 16.8423V17.6183H76.2305C76.2305 18.2348 76.3295 18.9007 76.5276 19.6163C76.7256 20.3318 77.0447 20.9922 77.4848 21.5977C77.9359 22.2031 78.5135 22.7095 79.2177 23.1168C79.9328 23.5131 80.8075 23.7112 81.8418 23.7112H85.2745V25.0652H81.7923C80.2519 25.0652 78.9206 24.889 77.7984 24.5368C76.6871 24.1845 75.7684 23.6727 75.0423 23.0012C74.3271 22.3297 73.799 21.5096 73.4579 20.5409C73.1168 19.5722 72.9463 18.4659 72.9463 17.222C72.9463 16.1873 73.1058 15.1856 73.4249 14.2169C73.755 13.2482 74.2281 12.3951 74.8442 11.6575C75.4713 10.909 76.236 10.3146 77.1382 9.87425C78.0514 9.42293 79.0967 9.19727 80.2739 9.19727ZM80.1089 10.6998C79.4267 10.6998 78.8436 10.854 78.3595 11.1622C77.8754 11.4704 77.4738 11.8832 77.1547 12.4006C76.8467 12.9069 76.6156 13.5014 76.4616 14.1838C76.3185 14.8553 76.2415 15.5543 76.2305 16.2809H83.2116V15.5708C83.1896 14.9324 83.129 14.3214 83.03 13.738C82.942 13.1546 82.7825 12.6372 82.5514 12.1859C82.3204 11.7346 82.0068 11.3768 81.6107 11.1126C81.2256 10.8374 80.725 10.6998 80.1089 10.6998Z" fill="white"/>
<path d="M58.4724 10.3366C59.0996 9.95131 59.7652 9.6651 60.4694 9.47797C61.1735 9.29083 61.8062 9.19727 62.3673 9.19727C63.7646 9.19727 64.9694 9.3899 65.9816 9.77518C67.0048 10.1494 67.8465 10.6723 68.5066 11.3438C69.1778 12.0043 69.6729 12.7969 69.992 13.7215C70.311 14.6352 70.4706 15.6314 70.4706 16.7102C70.4706 17.7999 70.322 18.8512 70.025 19.8639C69.7389 20.8657 69.2218 21.7518 68.4736 22.5223C67.7365 23.2929 66.7297 23.9093 65.4535 24.3717C64.1772 24.834 62.5598 25.0652 60.6014 25.0652H58.4724V31.0425L55.1387 32.0002V9.51099H58.4724V10.3366ZM62.0207 10.5843C61.3165 10.5843 60.6784 10.6668 60.1063 10.8319C59.5451 10.9971 59.0005 11.2392 58.4724 11.5585V23.7112H60.6014C61.5916 23.7112 62.4388 23.5901 63.1429 23.3479C63.8471 23.1058 64.4412 22.7865 64.9253 22.3902C65.4094 21.983 65.7945 21.5316 66.0806 21.0363C66.3777 20.5299 66.6032 20.018 66.7572 19.5007C66.9113 18.9723 67.0103 18.4659 67.0543 17.9816C67.1093 17.4862 67.1368 17.0514 67.1368 16.6771C67.1368 15.8736 67.0213 15.1085 66.7903 14.382C66.5702 13.6445 66.2401 12.995 65.8 12.4336C65.3709 11.8722 64.8373 11.4264 64.1992 11.0961C63.572 10.7549 62.8459 10.5843 62.0207 10.5843Z" fill="white"/>
<path d="M43.8999 10.6338C43.3718 10.6338 42.9097 10.6503 42.5136 10.6833C42.1285 10.7164 41.7764 10.7604 41.4574 10.8154C41.1383 10.8705 40.8412 10.9365 40.5662 11.0136C40.2911 11.0796 40.016 11.1512 39.741 11.2282L39.3449 10.155C40.2691 9.81371 41.2318 9.57153 42.233 9.42843C43.2453 9.27432 44.2025 9.19727 45.1047 9.19727C46.2599 9.19727 47.2061 9.25781 47.9433 9.3789C48.6915 9.49998 49.2746 9.70363 49.6927 9.98984C50.1108 10.265 50.3968 10.6393 50.5509 11.1126C50.7159 11.575 50.7984 12.1584 50.7984 12.8629V25.0652H45.3852C43.9109 25.0652 42.6511 24.9111 41.6059 24.6028C40.5717 24.2946 39.7245 23.8818 39.0643 23.3644C38.4042 22.8361 37.9201 22.2361 37.612 21.5647C37.3039 20.8822 37.1499 20.1666 37.1499 19.4181C37.1499 18.4934 37.2929 17.6789 37.579 16.9744C37.8761 16.2698 38.2997 15.6809 38.8498 15.2076C39.3999 14.7232 40.0711 14.36 40.8632 14.1178C41.6554 13.8646 42.5576 13.738 43.5698 13.738C44.1199 13.738 44.7416 13.8316 45.4347 14.0187C46.1389 14.2059 46.81 14.4866 47.4482 14.8608V12.7969C47.4482 12.5437 47.4207 12.2905 47.3657 12.0373C47.3107 11.7731 47.1676 11.542 46.9366 11.3438C46.7055 11.1347 46.3479 10.964 45.8638 10.8319C45.3907 10.6998 44.7361 10.6338 43.8999 10.6338ZM47.4482 23.7112V16.0662C46.9201 15.747 46.3699 15.5103 45.7978 15.3562C45.2257 15.2021 44.5931 15.125 43.8999 15.125C43.3498 15.125 42.8602 15.2241 42.4311 15.4222C42.013 15.6204 41.6609 15.9011 41.3748 16.2643C41.0888 16.6276 40.8687 17.0624 40.7147 17.5688C40.5717 18.0751 40.5001 18.6365 40.5001 19.253C40.5001 19.4291 40.5056 19.6603 40.5166 19.9465C40.5387 20.2327 40.5937 20.5409 40.6817 20.8712C40.7807 21.2014 40.9237 21.5371 41.1108 21.8784C41.3088 22.2086 41.5839 22.5113 41.936 22.7865C42.288 23.0617 42.7336 23.2874 43.2728 23.4635C43.8119 23.6286 44.472 23.7112 45.2532 23.7112H47.4482Z" fill="white"/>
<path d="M30.4328 10.7329C30.8729 10.4246 31.2579 10.1715 31.588 9.97332C31.9291 9.77518 32.2317 9.62107 32.4957 9.51099C32.7598 9.3899 33.0018 9.30734 33.2219 9.26331C33.4529 9.21928 33.6785 9.19727 33.8985 9.19727C34.7567 9.19727 35.3949 9.49448 35.813 10.0889C36.2311 10.6833 36.4786 11.5254 36.5556 12.6152L33.6675 13.4738C33.5575 12.6813 33.4089 12.1199 33.2219 11.7896C33.0348 11.4594 32.7433 11.2943 32.3472 11.2943C32.1161 11.2943 31.8411 11.3438 31.522 11.4429C31.2139 11.542 30.8509 11.7071 30.4328 11.9382V25.0652H27.0825V9.51099H30.4328V10.7329Z" fill="white"/>
<path d="M3.91137 12.483C3.91137 14.1452 4.18093 15.6532 4.72005 17.0072C5.27017 18.3502 6.05134 19.5005 7.06357 20.4582C8.07579 21.4159 9.30806 22.1534 10.7604 22.6708C12.2237 23.1882 13.8631 23.4468 15.6785 23.4468H19.2928V9.16408H22.9071V25.065H14.1931C12.8839 25.065 11.6241 24.9494 10.4138 24.7183C9.20354 24.4871 8.07029 24.1403 7.01406 23.678C5.95782 23.2157 5.00061 22.6378 4.14242 21.9443C3.28423 21.2508 2.54707 20.4362 1.93093 19.5005C1.31479 18.5648 0.836186 17.5136 0.49511 16.3467C0.165037 15.1799 0 13.892 0 12.483C0 11.3051 0.154034 10.1768 0.462103 9.09804C0.781173 8.01926 1.22127 7.01754 1.7824 6.09288C2.35452 5.16821 3.03667 4.33161 3.82885 3.58307C4.63203 2.83454 5.51772 2.19608 6.48594 1.6677C7.46516 1.12831 8.51589 0.715514 9.63814 0.429308C10.7604 0.143103 11.9321 0 13.1534 0C15.0568 0 16.8282 0.313725 18.4676 0.941176C20.107 1.56863 21.5593 2.42724 22.8246 3.51703L21.9004 4.7389C21.3942 4.3096 20.8331 3.90781 20.217 3.53354C19.6119 3.15927 18.9627 2.83454 18.2696 2.55934C17.5874 2.28414 16.8777 2.06949 16.1406 1.91538C15.4034 1.76127 14.6608 1.68421 13.9126 1.68421C12.3612 1.69522 10.9694 1.97592 9.73716 2.52631C8.50489 3.0657 7.45415 3.81974 6.58496 4.78844C5.72677 5.74613 5.06662 6.87994 4.60452 8.18988C4.14242 9.49982 3.91137 10.9309 3.91137 12.483Z" fill="white"/>
</svg>
