<svg width="12" height="8" viewBox="0 0 12 8" fill="none" xmlns="http://www.w3.org/2000/svg">
<path d="M11.1829 1.82595C11.1829 1.82595 11.0795 1.09401 10.7614 0.772615C10.3586 0.349621 9.90814 0.347548 9.70156 0.322666C8.22235 0.214844 6.0014 0.214844 6.0014 0.214844H5.99727C5.99727 0.214844 3.77635 0.214844 2.29712 0.322666C2.09052 0.347548 1.64014 0.349621 1.23727 0.772615C0.919113 1.09401 0.81788 1.82595 0.81788 1.82595C0.81788 1.82595 0.710449 2.68645 0.710449 3.54488V4.3494C0.710449 5.20783 0.815814 6.06833 0.815814 6.06833C0.815814 6.06833 0.919113 6.80026 1.23521 7.12163C1.63807 7.54468 2.16696 7.53012 2.40248 7.57573C3.24953 7.65662 5.99934 7.68151 5.99934 7.68151C5.99934 7.68151 8.22235 7.67734 9.70156 7.57163C9.90814 7.54674 10.3586 7.54468 10.7614 7.12163C11.0795 6.80026 11.1829 6.06833 11.1829 6.06833C11.1829 6.06833 11.2882 5.2099 11.2882 4.3494V3.54488C11.2882 2.68645 11.1829 1.82595 11.1829 1.82595ZM4.90644 5.32601V2.34225L7.76365 3.83932L4.90644 5.32601Z" fill="white"/>
</svg>
