<svg width="8" height="13" viewBox="0 0 8 13" fill="none" xmlns="http://www.w3.org/2000/svg">
<path d="M4.31097 4.80844H7.11097L6.79986 6.05288H4.31097V11.6529H3.06653V6.05288H0.577637V4.80844H3.06653V3.64364C3.06653 2.53421 3.18226 2.13164 3.39879 1.72595C3.61098 1.32512 3.93876 0.997331 4.33959 0.785148C4.74528 0.568614 5.14786 0.452881 6.25728 0.452881C6.58208 0.452881 6.86706 0.483992 7.11097 0.546214V1.69733H6.25728C5.43346 1.69733 5.1827 1.74586 4.92697 1.88275C4.73781 1.98355 4.59719 2.12417 4.49639 2.31333C4.3595 2.56906 4.31097 2.81981 4.31097 3.64364V4.80844Z" fill="white" stroke="white" stroke-width="0.8"/>
</svg>
