<svg width="12" height="12" viewBox="0 0 12 12" fill="none" xmlns="http://www.w3.org/2000/svg">
<path d="M8.813 2.36949C8.67802 2.36949 8.54607 2.40951 8.43384 2.48451C8.3216 2.5595 8.23409 2.66609 8.18245 2.7908C8.13081 2.91552 8.11731 3.05274 8.14362 3.18513C8.16994 3.31752 8.23493 3.43914 8.3304 3.53459C8.42587 3.63003 8.54744 3.69504 8.67984 3.72137C8.81225 3.7477 8.9495 3.73419 9.07417 3.68253C9.19892 3.63088 9.30547 3.5434 9.38046 3.43116C9.45546 3.31893 9.4955 3.18697 9.4955 3.05199C9.4955 2.87097 9.42361 2.69738 9.29561 2.56938C9.1676 2.44139 8.99402 2.36949 8.813 2.36949ZM11.4293 3.74586C11.4182 3.27397 11.3298 2.80708 11.1676 2.3638C11.023 1.98452 10.7979 1.64108 10.5079 1.35711C10.2262 1.06559 9.88203 0.841922 9.50119 0.703049C9.05908 0.535928 8.59165 0.445524 8.11913 0.435736C7.51625 0.401611 7.32288 0.401611 5.77588 0.401611C4.22888 0.401611 4.0355 0.401611 3.43263 0.435736C2.96008 0.445524 2.49268 0.535928 2.05057 0.703049C1.67046 0.843333 1.32651 1.0668 1.04388 1.35711C0.752353 1.63874 0.52869 1.98299 0.389816 2.3638C0.222696 2.80591 0.132292 3.27331 0.122504 3.74586C0.0883789 4.34874 0.0883789 4.54211 0.0883789 6.08911C0.0883789 7.63611 0.0883789 7.82949 0.122504 8.43236C0.132292 8.90488 0.222696 9.37232 0.389816 9.81442C0.52869 10.1953 0.752353 10.5395 1.04388 10.8211C1.32651 11.1114 1.67046 11.3349 2.05057 11.4752C2.49268 11.6423 2.96008 11.7327 3.43263 11.7425C4.0355 11.7766 4.22888 11.7766 5.77588 11.7766C7.32288 11.7766 7.51625 11.7766 8.11913 11.7425C8.59165 11.7327 9.05908 11.6423 9.50119 11.4752C9.88203 11.3363 10.2262 11.1126 10.5079 10.8211C10.7992 10.5382 11.0245 10.1944 11.1676 9.81442C11.3298 9.3711 11.4182 8.90427 11.4293 8.43236C11.4293 7.82949 11.4634 7.63611 11.4634 6.08911C11.4634 4.54211 11.4634 4.34874 11.4293 3.74586ZM10.4055 8.36411C10.4013 8.72515 10.336 9.08286 10.2121 9.42199C10.1213 9.66951 9.97545 9.89314 9.78557 10.076C9.60106 10.264 9.37789 10.4096 9.1315 10.5026C8.79238 10.6264 8.43467 10.6918 8.07363 10.696C7.50488 10.7244 7.29444 10.7301 5.79863 10.7301C4.30282 10.7301 4.09238 10.7301 3.52363 10.696C3.14876 10.703 2.7755 10.6453 2.42025 10.5254C2.18467 10.4276 1.97171 10.2824 1.79463 10.0988C1.60586 9.91612 1.46182 9.69226 1.37375 9.44474C1.2349 9.10076 1.15788 8.73494 1.14625 8.36411C1.14625 7.79536 1.11213 7.58492 1.11213 6.08911C1.11213 4.5933 1.11213 4.38286 1.14625 3.81411C1.1488 3.44502 1.21618 3.07926 1.34532 2.73349C1.44545 2.49342 1.59913 2.27943 1.79463 2.10786C1.96742 1.91231 2.18098 1.757 2.42025 1.65286C2.76693 1.52776 3.13233 1.46238 3.50088 1.45949C4.06963 1.45949 4.28007 1.42536 5.77588 1.42536C7.27169 1.42536 7.48213 1.42536 8.05088 1.45949C8.41192 1.46363 8.76963 1.52901 9.10875 1.65286C9.36719 1.74878 9.59917 1.90473 9.78557 2.10786C9.97196 2.28257 10.1176 2.49617 10.2121 2.73349C10.3385 3.07982 10.404 3.44543 10.4055 3.81411C10.4339 4.38286 10.4396 4.5933 10.4396 6.08911C10.4396 7.58492 10.4339 7.79536 10.4055 8.36411ZM5.77588 3.17142C5.19906 3.17255 4.63551 3.34462 4.15645 3.6659C3.67739 3.98719 3.3043 4.44326 3.08435 4.97649C2.86439 5.50973 2.80741 6.0962 2.92064 6.6618C3.03386 7.2274 3.31219 7.74675 3.72046 8.1542C4.12873 8.56173 4.64862 8.83906 5.21444 8.95114C5.78026 9.06329 6.36662 9.00513 6.89943 8.78415C7.43223 8.56317 7.88761 8.18916 8.20793 7.70952C8.52825 7.22981 8.69925 6.66593 8.69925 6.08911C8.70001 5.70527 8.62486 5.32506 8.47812 4.97036C8.33146 4.61565 8.11602 4.29346 7.84438 4.0223C7.57267 3.75115 7.25005 3.53638 6.89507 3.39035C6.54007 3.24433 6.15972 3.16992 5.77588 3.17142ZM5.77588 7.98305C5.40129 7.98305 5.03512 7.87195 4.72366 7.66387C4.41221 7.45576 4.16946 7.15996 4.02611 6.81389C3.88276 6.46782 3.84525 6.08701 3.91833 5.71962C3.99141 5.35223 4.17179 5.01477 4.43666 4.74989C4.70153 4.48502 5.039 4.30465 5.40639 4.23157C5.77378 4.15849 6.15458 4.19599 6.50066 4.33934C6.84673 4.48269 7.14252 4.72544 7.35063 5.03689C7.55872 5.34836 7.66982 5.71452 7.66982 6.08911C7.66982 6.33783 7.62083 6.58411 7.52566 6.81389C7.43049 7.04367 7.29096 7.25246 7.1151 7.42833C6.93923 7.60419 6.73044 7.74372 6.50066 7.83889C6.27087 7.93406 6.0246 7.98305 5.77588 7.98305Z" fill="white"/>
</svg>
