<svg width="16" height="16" viewBox="0 0 16 16" fill="none" xmlns="http://www.w3.org/2000/svg">
<path d="M13 14.6665C13.5523 14.6665 14 14.2188 14 13.6665C14 13.1142 13.5523 12.6665 13 12.6665C12.4477 12.6665 12 13.1142 12 13.6665C12 14.2188 12.4477 14.6665 13 14.6665Z" fill="black" stroke="black" stroke-linecap="round" stroke-linejoin="round"/>
<path d="M6.33398 14.6665C6.88627 14.6665 7.33398 14.2188 7.33398 13.6665C7.33398 13.1142 6.88627 12.6665 6.33398 12.6665C5.7817 12.6665 5.33398 13.1142 5.33398 13.6665C5.33398 14.2188 5.7817 14.6665 6.33398 14.6665Z" fill="black" stroke="black" stroke-linecap="round" stroke-linejoin="round"/>
<path d="M14.6673 2.66683L13.334 10.0002H4.66732L3.33398 2.66683H14.6673Z" fill="black"/>
<path d="M3.33398 2.66683H14.6673L13.334 10.0002H4.66732L3.33398 2.66683ZM3.33398 2.66683C3.22287 2.22238 2.66732 1.3335 1.33398 1.3335" stroke="black" stroke-linecap="round" stroke-linejoin="round"/>
<path d="M13.3337 10H4.66699H3.4875C2.29797 10 1.66699 10.5208 1.66699 11.3333C1.66699 12.1458 2.29797 12.6667 3.4875 12.6667H13.0003" stroke="black" stroke-linecap="round" stroke-linejoin="round"/>
</svg>
