<svg width="17" height="16" viewBox="0 0 17 16" fill="none" xmlns="http://www.w3.org/2000/svg">
<path d="M12.8181 3.07132C12.6349 3.07132 12.4558 3.12564 12.3035 3.22743C12.1512 3.3292 12.0324 3.47386 11.9623 3.64311C11.8923 3.81236 11.8739 3.9986 11.9097 4.17827C11.9454 4.35795 12.0336 4.52299 12.1631 4.65253C12.2927 4.78206 12.4577 4.87029 12.6374 4.90603C12.8171 4.94176 13.0034 4.92342 13.1725 4.85331C13.3418 4.78321 13.4864 4.66449 13.5882 4.51217C13.69 4.35985 13.7444 4.18076 13.7444 3.99757C13.7444 3.75191 13.6468 3.51632 13.4731 3.34261C13.2993 3.16891 13.0638 3.07132 12.8181 3.07132ZM16.3687 4.93926C16.3537 4.29883 16.2338 3.6652 16.0137 3.0636C15.8174 2.54887 15.5119 2.08277 15.1183 1.69738C14.7361 1.30174 14.2689 0.9982 13.7521 0.809729C13.1521 0.582922 12.5177 0.460231 11.8764 0.446947C11.0582 0.400635 10.7958 0.400635 8.69629 0.400635C6.59679 0.400635 6.33435 0.400635 5.51616 0.446947C4.87485 0.460231 4.24052 0.582922 3.64051 0.809729C3.12465 1.00011 2.65786 1.30339 2.27429 1.69738C1.87865 2.0796 1.5751 2.54679 1.38663 3.0636C1.15983 3.66362 1.03714 4.29794 1.02385 4.93926C0.977539 5.75745 0.977539 6.01989 0.977539 8.11938C0.977539 10.2189 0.977539 10.4813 1.02385 11.2995C1.03714 11.9408 1.15983 12.5752 1.38663 13.1752C1.5751 13.692 1.87865 14.1592 2.27429 14.5414C2.65786 14.9354 3.12465 15.2386 3.64051 15.429C4.24052 15.6559 4.87485 15.7785 5.51616 15.7918C6.33435 15.8381 6.59679 15.8381 8.69629 15.8381C10.7958 15.8381 11.0582 15.8381 11.8764 15.7918C12.5177 15.7785 13.1521 15.6559 13.7521 15.429C14.2689 15.2406 14.7361 14.937 15.1183 14.5414C15.5137 14.1574 15.8195 13.6909 16.0137 13.1752C16.2338 12.5735 16.3537 11.94 16.3687 11.2995C16.3687 10.4813 16.415 10.2189 16.415 8.11938C16.415 6.01989 16.415 5.75745 16.3687 4.93926ZM14.9794 11.2069C14.9737 11.6969 14.885 12.1823 14.7169 12.6426C14.5936 12.9785 14.3957 13.282 14.138 13.5302C13.8876 13.7854 13.5847 13.9829 13.2504 14.1091C12.7901 14.2772 12.3047 14.3659 11.8147 14.3716C11.0428 14.4102 10.7572 14.4179 8.72716 14.4179C6.69713 14.4179 6.41154 14.4179 5.63966 14.3716C5.13092 14.3811 4.62434 14.3027 4.14223 14.14C3.82251 14.0074 3.5335 13.8103 3.29316 13.5611C3.03697 13.3132 2.84149 13.0094 2.72198 12.6734C2.53353 12.2066 2.429 11.7101 2.41323 11.2069C2.41323 10.435 2.36691 10.1494 2.36691 8.11938C2.36691 6.08935 2.36691 5.80376 2.41323 5.03189C2.41668 4.53098 2.50813 4.03458 2.68338 3.56532C2.81927 3.23952 3.02784 2.9491 3.29316 2.71626C3.52767 2.45087 3.81749 2.24009 4.14223 2.09876C4.61272 1.92898 5.10861 1.84024 5.60879 1.83632C6.38066 1.83632 6.66626 1.79001 8.69629 1.79001C10.7263 1.79001 11.0119 1.79001 11.7838 1.83632C12.2738 1.84194 12.7592 1.93068 13.2195 2.09876C13.5702 2.22894 13.885 2.44059 14.138 2.71626C14.391 2.95336 14.5886 3.24324 14.7169 3.56532C14.8885 4.03534 14.9773 4.53154 14.9794 5.03189C15.0179 5.80376 15.0257 6.08935 15.0257 8.11938C15.0257 10.1494 15.0179 10.435 14.9794 11.2069ZM8.69629 4.15967C7.91346 4.16119 7.14865 4.39472 6.49849 4.83074C5.84834 5.26677 5.34201 5.88573 5.0435 6.6094C4.74498 7.33308 4.66766 8.12901 4.82132 8.89661C4.97498 9.66421 5.35271 10.369 5.90679 10.922C6.46088 11.4751 7.16644 11.8515 7.93434 12.0036C8.70224 12.1558 9.49801 12.0768 10.2211 11.7769C10.9442 11.477 11.5622 10.9695 11.9969 10.3185C12.4317 9.66748 12.6637 8.90221 12.6637 8.11938C12.6648 7.59845 12.5628 7.08246 12.3636 6.60108C12.1646 6.11969 11.8722 5.68243 11.5035 5.31443C11.1348 4.94643 10.6969 4.65496 10.2152 4.45679C9.73341 4.25861 9.21722 4.15763 8.69629 4.15967ZM8.69629 10.6897C8.18792 10.6897 7.69098 10.539 7.26828 10.2566C6.84559 9.97412 6.51614 9.57268 6.3216 9.10301C6.12706 8.63334 6.07615 8.11653 6.17533 7.61793C6.27452 7.11933 6.51931 6.66134 6.87878 6.30188C7.23825 5.94241 7.69624 5.69761 8.19484 5.59843C8.69344 5.49925 9.21025 5.55015 9.67992 5.7447C10.1496 5.93924 10.551 6.26869 10.8335 6.69138C11.1159 7.11407 11.2666 7.61102 11.2666 8.11938C11.2666 8.45693 11.2001 8.79116 11.071 9.10301C10.9418 9.41486 10.7525 9.69822 10.5138 9.93689C10.2751 10.1756 9.99176 10.3649 9.67992 10.4941C9.36807 10.6232 9.03384 10.6897 8.69629 10.6897Z" fill="white"/>
</svg>
