<svg width="16" height="16" viewBox="0 0 16 16" fill="none" xmlns="http://www.w3.org/2000/svg">
<path d="M13 14.6666C13.5523 14.6666 14 14.2188 14 13.6666C14 13.1143 13.5523 12.6666 13 12.6666C12.4477 12.6666 12 13.1143 12 13.6666C12 14.2188 12.4477 14.6666 13 14.6666Z" fill="white" stroke="white" stroke-linecap="round" stroke-linejoin="round"/>
<path d="M6.3335 14.6666C6.88578 14.6666 7.3335 14.2188 7.3335 13.6666C7.3335 13.1143 6.88578 12.6666 6.3335 12.6666C5.78121 12.6666 5.3335 13.1143 5.3335 13.6666C5.3335 14.2188 5.78121 14.6666 6.3335 14.6666Z" fill="white" stroke="white" stroke-linecap="round" stroke-linejoin="round"/>
<path d="M3.3335 2.66677H14.6668L13.3335 10.0001H4.66683L3.3335 2.66677ZM3.3335 2.66677C3.22239 2.22232 2.66683 1.33344 1.3335 1.33344" stroke="white" stroke-linecap="round" stroke-linejoin="round"/>
<path d="M13.3327 10H4.66602H3.48653C2.29699 10 1.66602 10.5208 1.66602 11.3333C1.66602 12.1458 2.29699 12.6667 3.48653 12.6667H12.9993" stroke="white" stroke-linecap="round" stroke-linejoin="round"/>
</svg>
