<svg width="88" height="26" viewBox="0 0 88 26" fill="none" xmlns="http://www.w3.org/2000/svg">
<path d="M79.7164 7.91538L84.692 0.415899H86.3729L80.5636 9.17648L88 20.3653H84.3692L78.6137 11.6048L72.8313 20.3653H71.1504L77.78 10.3034L71.3118 0.415899H74.7812L79.7164 7.91538Z" fill="white"/>
<path d="M65.4083 7.47265C66.3227 7.47265 67.0937 7.64259 67.7213 7.98246C68.3578 8.31338 68.8733 8.76505 69.2677 9.33746C69.6711 9.90987 69.958 10.5717 70.1284 11.323C70.3077 12.0654 70.3973 12.8524 70.3973 13.6842V14.3148H62.1137C62.1137 14.8156 62.1944 15.3567 62.3557 15.9381C62.5171 16.5194 62.7771 17.0561 63.1357 17.548C63.5033 18.0399 63.9739 18.4513 64.5477 18.7822C65.1304 19.1042 65.8431 19.2652 66.6858 19.2652H69.4829V20.3653H66.6455C65.3904 20.3653 64.3056 20.2222 63.3912 19.936C62.4857 19.6498 61.7372 19.2339 61.1455 18.6883C60.5628 18.1428 60.1324 17.4764 59.8545 16.6894C59.5766 15.9023 59.4377 15.0034 59.4377 13.9928C59.4377 13.152 59.5676 12.3381 59.8276 11.5511C60.0966 10.764 60.4821 10.0709 60.9841 9.47162C61.4951 8.86343 62.1182 8.38046 62.8533 8.0227C63.5974 7.656 64.4491 7.47265 65.4083 7.47265ZM65.2738 8.6935C64.718 8.6935 64.2429 8.81871 63.8484 9.06914C63.454 9.31957 63.1267 9.65497 62.8667 10.0753C62.6157 10.4868 62.4275 10.9697 62.302 11.5243C62.1854 12.0698 62.1227 12.6378 62.1137 13.2281H67.802V12.6512C67.784 12.1324 67.7347 11.6361 67.654 11.162C67.5823 10.688 67.4523 10.2676 67.2641 9.90093C67.0758 9.53423 66.8203 9.24355 66.4976 9.0289C66.1838 8.8053 65.7759 8.6935 65.2738 8.6935Z" fill="white"/>
<path d="M47.6443 8.39835C48.1553 8.08531 48.6976 7.85277 49.2714 7.70072C49.8451 7.54868 50.3606 7.47265 50.8178 7.47265C51.9564 7.47265 52.9381 7.62917 53.7628 7.94221C54.5966 8.2463 55.2824 8.67114 55.8203 9.21672C56.3672 9.75335 56.7706 10.3973 57.0306 11.1486C57.2905 11.891 57.4205 12.7004 57.4205 13.5769C57.4205 14.4623 57.2995 15.3165 57.0575 16.1393C56.8244 16.9532 56.403 17.6732 55.7934 18.2993C55.1927 18.9254 54.3724 19.4262 53.3325 19.8019C52.2926 20.1775 50.9747 20.3653 49.379 20.3653H47.6443V25.2219L44.9279 26V7.72755H47.6443V8.39835ZM50.5354 8.59959C49.9617 8.59959 49.4417 8.66667 48.9755 8.80083C48.5183 8.93498 48.0746 9.13175 47.6443 9.39112V19.2652H49.379C50.1858 19.2652 50.8761 19.1668 51.4499 18.9701C52.0236 18.7733 52.5077 18.5139 52.9022 18.1919C53.2967 17.861 53.6104 17.4943 53.8435 17.0918C54.0856 16.6804 54.2694 16.2645 54.3949 15.8442C54.5204 15.4149 54.6011 15.0034 54.6369 14.6099C54.6817 14.2074 54.7042 13.8541 54.7042 13.5501C54.7042 12.8971 54.61 12.2755 54.4218 11.6852C54.2425 11.086 53.9735 10.5583 53.6149 10.1022C53.2653 9.64603 52.8305 9.2838 52.3105 9.01548C51.7995 8.73822 51.2078 8.59959 50.5354 8.59959Z" fill="white"/>
<path d="M35.7702 8.63983C35.3399 8.63983 34.9633 8.65325 34.6406 8.68008C34.3268 8.70691 34.0399 8.74269 33.78 8.78741C33.52 8.83213 33.2779 8.88579 33.0538 8.9484C32.8297 9.00206 32.6055 9.0602 32.3814 9.12281L32.0587 8.25077C32.8117 7.97351 33.5962 7.77675 34.412 7.66047C35.2368 7.53526 36.0167 7.47265 36.7518 7.47265C37.6932 7.47265 38.4641 7.52184 39.0648 7.62023C39.6744 7.71861 40.1496 7.88407 40.4902 8.11662C40.8309 8.34021 41.064 8.64431 41.1895 9.0289C41.324 9.40454 41.3912 9.87857 41.3912 10.451V20.3653H36.9804C35.7791 20.3653 34.7526 20.2401 33.901 19.9897C33.0583 19.7392 32.368 19.4038 31.8301 18.9835C31.2922 18.5542 30.8977 18.0667 30.6467 17.5212C30.3957 16.9666 30.2702 16.3853 30.2702 15.7771C30.2702 15.0258 30.3867 14.3639 30.6198 13.7915C30.8619 13.2191 31.207 12.7406 31.6553 12.356C32.1035 11.9625 32.6504 11.6674 33.2958 11.4706C33.9413 11.2649 34.6764 11.162 35.5012 11.162C35.9495 11.162 36.456 11.238 37.0208 11.3901C37.5945 11.5421 38.1414 11.7702 38.6614 12.0743V10.3973C38.6614 10.1916 38.639 9.9859 38.5941 9.78019C38.5493 9.56553 38.4328 9.37771 38.2445 9.21672C38.0562 9.04678 37.7649 8.90815 37.3704 8.80083C36.9849 8.6935 36.4515 8.63983 35.7702 8.63983ZM38.6614 19.2652V13.0537C38.2311 12.7943 37.7828 12.602 37.3166 12.4768C36.8504 12.3516 36.335 12.289 35.7702 12.289C35.3219 12.289 34.923 12.3695 34.5734 12.5304C34.2327 12.6914 33.9458 12.9195 33.7127 13.2147C33.4796 13.5098 33.3003 13.8631 33.1748 14.2745C33.0583 14.6859 33 15.1421 33 15.6429C33 15.786 33.0045 15.9739 33.0134 16.2064C33.0314 16.4389 33.0762 16.6894 33.1479 16.9577C33.2286 17.226 33.3452 17.4988 33.4976 17.7761C33.6589 18.0444 33.883 18.2903 34.1699 18.5139C34.4568 18.7375 34.8199 18.9209 35.2592 19.064C35.6985 19.1981 36.2364 19.2652 36.8729 19.2652H38.6614Z" fill="white"/>
<path d="M24.7971 8.72033C25.1557 8.4699 25.4694 8.26419 25.7384 8.1032C26.0163 7.94221 26.2628 7.81699 26.478 7.72755C26.6932 7.62917 26.8904 7.56209 27.0697 7.52632C27.258 7.49054 27.4417 7.47265 27.621 7.47265C28.3203 7.47265 28.8403 7.71414 29.1809 8.19711C29.5216 8.68008 29.7233 9.36429 29.7861 10.2497L27.4328 10.9474C27.3431 10.3034 27.2221 9.84726 27.0697 9.57895C26.9173 9.31063 26.6797 9.17647 26.357 9.17647C26.1687 9.17647 25.9446 9.21672 25.6846 9.29721C25.4336 9.37771 25.1377 9.51187 24.7971 9.69969V20.3653H22.0672V7.72755H24.7971V8.72033Z" fill="white"/>
<path d="M3.18704 10.1424C3.18704 11.4929 3.40668 12.7183 3.84597 13.8184C4.29421 14.9095 4.93072 15.8442 5.7555 16.6223C6.58028 17.4004 7.58435 17.9996 8.76772 18.42C9.96006 18.8404 11.2958 19.0506 12.7751 19.0506H15.72V7.44582H18.665V20.3653H11.5648C10.498 20.3653 9.47147 20.2714 8.48533 20.0836C7.49918 19.8958 6.57579 19.614 5.71516 19.2384C4.85452 18.8627 4.07457 18.3932 3.37531 17.8297C2.67604 17.2662 2.07539 16.6044 1.57335 15.8442C1.07131 15.0839 0.681337 14.2298 0.403423 13.2817C0.134474 12.3337 0 11.2872 0 10.1424C0 9.18541 0.125509 8.26866 0.376528 7.39215C0.636512 6.51565 0.99511 5.70175 1.45232 4.95046C1.9185 4.19917 2.47433 3.51943 3.1198 2.91125C3.77425 2.30306 4.49592 1.78431 5.28484 1.355C6.08272 0.916752 6.93887 0.581355 7.8533 0.348813C8.76772 0.116271 9.72249 0 10.7176 0C12.2685 0 13.7119 0.254902 15.0477 0.764706C16.3835 1.27451 17.5668 1.97214 18.5978 2.85758L17.8447 3.85036C17.4324 3.50155 16.9751 3.17509 16.4731 2.871C15.98 2.56691 15.4511 2.30306 14.8863 2.07946C14.3305 1.85586 13.7522 1.68146 13.1516 1.55624C12.5509 1.43103 11.9458 1.36842 11.3362 1.36842C10.0721 1.37736 8.93806 1.60543 7.93398 2.05263C6.92991 2.49088 6.07376 3.10354 5.36552 3.89061C4.66626 4.66873 4.12836 5.58995 3.75183 6.65428C3.37531 7.71861 3.18704 8.88132 3.18704 10.1424Z" fill="white"/>
</svg>
