<svg width="40" height="40" viewBox="0 0 40 40" fill="none" xmlns="http://www.w3.org/2000/svg">
<path d="M10.8333 8.33333H15.8333" stroke="white" stroke-linecap="round" stroke-linejoin="round"/>
<path d="M10.8333 8.33331V4.99998C10.8333 4.07951 11.5795 3.33331 12.5 3.33331H14.1667C15.0872 3.33331 15.8333 4.07951 15.8333 4.99998V8.33331" stroke="white" stroke-linecap="round" stroke-linejoin="round"/>
<path d="M20 23.3333V30H6.66669V23.3333" stroke="white" stroke-linecap="round" stroke-linejoin="round"/>
<path d="M6.66669 23.3333C6.66637 20.6904 7.38664 18.0974 8.75002 15.8333V15.8333C10.1131 13.5691 10.8333 10.9762 10.8334 8.33331" stroke="white" stroke-linecap="round" stroke-linejoin="round"/>
<path d="M15.8333 8.33331C15.833 10.9762 16.5533 13.5692 17.9167 15.8333V15.8333C19.2797 18.0976 20 20.6905 20 23.3333" stroke="white" stroke-linecap="round" stroke-linejoin="round"/>
<path fill-rule="evenodd" clip-rule="evenodd" d="M30 22.5406V22.5406C31.4125 22.5406 32.7591 21.9431 33.7069 20.8958C34.6547 19.8485 35.1153 18.4492 34.9747 17.0437L34.7695 14.9915C34.6754 14.0502 33.8832 13.3333 32.9372 13.3333H27.0629C26.1168 13.3333 25.3247 14.0502 25.2305 14.9915L25.0253 17.0437C24.8848 18.4492 25.3453 19.8485 26.2931 20.8958C27.2409 21.9431 28.5875 22.5406 30 22.5406Z" stroke="white" stroke-linecap="round" stroke-linejoin="round"/>
<path d="M30 22.5407V30" stroke="white" stroke-linecap="round" stroke-linejoin="round"/>
<path fill-rule="evenodd" clip-rule="evenodd" d="M33.3333 35H6.66668C4.82573 35 3.33334 33.5076 3.33334 31.6667V31.6667C3.33334 30.7462 4.07954 30 5.00001 30H35C35.9205 30 36.6667 30.7462 36.6667 31.6667V31.6667C36.6667 33.5076 35.1743 35 33.3333 35Z" stroke="white" stroke-linecap="round" stroke-linejoin="round"/>
<path d="M19.3895 19.1666H7.2767" stroke="white" stroke-linecap="round" stroke-linejoin="round"/>
</svg>
